<mxfile host="app.diagrams.net" agent="Mozilla/5.0 (Windows NT 10.0; Win64; x64; rv:132.0) Gecko/20100101 Firefox/132.0" version="24.8.6">
  <diagram name="Page-1" id="bpim2FsbRQl-MeQw2oX1">
    <mxGraphModel dx="1434" dy="764" grid="1" gridSize="10" guides="1" tooltips="1" connect="1" arrows="1" fold="1" page="1" pageScale="1" pageWidth="827" pageHeight="1169" math="0" shadow="0">
      <root>
        <mxCell id="0" />
        <mxCell id="1" parent="0" />
        <mxCell id="_ftLBjnjTZmpUto3gGOd-8" style="edgeStyle=orthogonalEdgeStyle;rounded=0;orthogonalLoop=1;jettySize=auto;html=1;exitX=1;exitY=0.5;exitDx=0;exitDy=0;entryX=0;entryY=0.5;entryDx=0;entryDy=0;" edge="1" parent="1" source="kSKzc5L-iOCtn9OYDM2w-1" target="_ftLBjnjTZmpUto3gGOd-7">
          <mxGeometry relative="1" as="geometry" />
        </mxCell>
        <mxCell id="kSKzc5L-iOCtn9OYDM2w-1" value="&lt;b&gt;&lt;font style=&quot;font-size: 14px;&quot;&gt;0&lt;/font&gt;&lt;/b&gt;" style="ellipse;whiteSpace=wrap;html=1;aspect=fixed;" parent="1" vertex="1">
          <mxGeometry x="80" y="220" width="50" height="50" as="geometry" />
        </mxCell>
        <mxCell id="kSKzc5L-iOCtn9OYDM2w-2" value="" style="endArrow=classic;html=1;rounded=0;entryX=0;entryY=0.5;entryDx=0;entryDy=0;" parent="1" target="kSKzc5L-iOCtn9OYDM2w-1" edge="1">
          <mxGeometry width="50" height="50" relative="1" as="geometry">
            <mxPoint x="20" y="245" as="sourcePoint" />
            <mxPoint x="50" y="220" as="targetPoint" />
          </mxGeometry>
        </mxCell>
        <mxCell id="kSKzc5L-iOCtn9OYDM2w-9" style="edgeStyle=orthogonalEdgeStyle;rounded=0;orthogonalLoop=1;jettySize=auto;html=1;exitX=1;exitY=0.5;exitDx=0;exitDy=0;entryX=0;entryY=0.5;entryDx=0;entryDy=0;" parent="1" source="kSKzc5L-iOCtn9OYDM2w-4" target="kSKzc5L-iOCtn9OYDM2w-8" edge="1">
          <mxGeometry relative="1" as="geometry" />
        </mxCell>
        <mxCell id="_ftLBjnjTZmpUto3gGOd-12" style="edgeStyle=orthogonalEdgeStyle;rounded=0;orthogonalLoop=1;jettySize=auto;html=1;exitX=0.5;exitY=1;exitDx=0;exitDy=0;entryX=0.5;entryY=1;entryDx=0;entryDy=0;curved=1;" edge="1" parent="1" source="kSKzc5L-iOCtn9OYDM2w-4" target="kSKzc5L-iOCtn9OYDM2w-14">
          <mxGeometry relative="1" as="geometry">
            <Array as="points">
              <mxPoint x="325" y="370" />
              <mxPoint x="1055" y="370" />
            </Array>
          </mxGeometry>
        </mxCell>
        <mxCell id="kSKzc5L-iOCtn9OYDM2w-4" value="&lt;b&gt;2&lt;/b&gt;" style="ellipse;whiteSpace=wrap;html=1;aspect=fixed;" parent="1" vertex="1">
          <mxGeometry x="300" y="220" width="50" height="50" as="geometry" />
        </mxCell>
        <mxCell id="kSKzc5L-iOCtn9OYDM2w-6" value="&lt;b style=&quot;font-size: 18px;&quot;&gt;/&lt;/b&gt;" style="text;html=1;align=center;verticalAlign=middle;resizable=0;points=[];autosize=1;strokeColor=none;fillColor=none;" parent="1" vertex="1">
          <mxGeometry x="150" y="203" width="30" height="40" as="geometry" />
        </mxCell>
        <mxCell id="kSKzc5L-iOCtn9OYDM2w-7" value="Start" style="text;html=1;align=center;verticalAlign=middle;resizable=0;points=[];autosize=1;strokeColor=none;fillColor=none;" parent="1" vertex="1">
          <mxGeometry x="25" y="218" width="50" height="30" as="geometry" />
        </mxCell>
        <mxCell id="kSKzc5L-iOCtn9OYDM2w-8" value="&lt;b&gt;3&lt;/b&gt;" style="ellipse;whiteSpace=wrap;html=1;aspect=fixed;" parent="1" vertex="1">
          <mxGeometry x="660" y="220" width="50" height="50" as="geometry" />
        </mxCell>
        <mxCell id="kSKzc5L-iOCtn9OYDM2w-10" value="&lt;font style=&quot;font-size: 14px;&quot;&gt;[a-zA-Z0-9-!#$%&amp;amp;&#39;()+,./:;&amp;lt;=&amp;gt;?@[\\\]_&lt;code&gt;{|}~]&lt;/code&gt;&lt;/font&gt;" style="text;html=1;align=center;verticalAlign=middle;resizable=0;points=[];autosize=1;strokeColor=none;fillColor=none;" parent="1" vertex="1">
          <mxGeometry x="355" y="208" width="290" height="30" as="geometry" />
        </mxCell>
        <mxCell id="kSKzc5L-iOCtn9OYDM2w-11" value="&lt;b&gt;&lt;font style=&quot;font-size: 14px;&quot;&gt;trap&lt;/font&gt;&lt;/b&gt;" style="ellipse;whiteSpace=wrap;html=1;aspect=fixed;" parent="1" vertex="1">
          <mxGeometry x="660" y="430" width="50" height="50" as="geometry" />
        </mxCell>
        <mxCell id="kSKzc5L-iOCtn9OYDM2w-12" value="" style="curved=1;endArrow=classic;html=1;rounded=0;entryX=0;entryY=0.5;entryDx=0;entryDy=0;exitX=0.5;exitY=1;exitDx=0;exitDy=0;" parent="1" source="_ftLBjnjTZmpUto3gGOd-7" target="kSKzc5L-iOCtn9OYDM2w-11" edge="1">
          <mxGeometry width="50" height="50" relative="1" as="geometry">
            <mxPoint x="80" y="379.9999999999999" as="sourcePoint" />
            <mxPoint x="75" y="420" as="targetPoint" />
            <Array as="points">
              <mxPoint x="155" y="450" />
            </Array>
          </mxGeometry>
        </mxCell>
        <mxCell id="kSKzc5L-iOCtn9OYDM2w-13" value="&lt;span style=&quot;forced-color-adjust: none; color: rgb(0, 0, 0); font-family: Helvetica; font-size: 12px; font-style: normal; font-variant-ligatures: normal; font-variant-caps: normal; letter-spacing: normal; orphans: 2; text-align: center; text-indent: 0px; text-transform: none; widows: 2; word-spacing: 0px; -webkit-text-stroke-width: 0px; white-space: nowrap; background-color: rgb(251, 251, 251); text-decoration-thickness: initial; text-decoration-style: initial; text-decoration-color: initial;&quot;&gt;&lt;font style=&quot;forced-color-adjust: none; font-size: 14px;&quot;&gt;[a-zA-Z0-9-!#$%&amp;amp;&#39;()*+,.:;&amp;lt;=&amp;gt;?@[\\\]_&lt;code style=&quot;forced-color-adjust: none;&quot;&gt;{|}~]&lt;/code&gt;&lt;/font&gt;&lt;/span&gt;" style="text;whiteSpace=wrap;html=1;rotation=15;" parent="1" vertex="1">
          <mxGeometry x="115" y="510" width="310" height="40" as="geometry" />
        </mxCell>
        <mxCell id="_ftLBjnjTZmpUto3gGOd-4" style="edgeStyle=orthogonalEdgeStyle;rounded=0;orthogonalLoop=1;jettySize=auto;html=1;exitX=1;exitY=0.5;exitDx=0;exitDy=0;" edge="1" parent="1" source="kSKzc5L-iOCtn9OYDM2w-14" target="_ftLBjnjTZmpUto3gGOd-3">
          <mxGeometry relative="1" as="geometry" />
        </mxCell>
        <mxCell id="kSKzc5L-iOCtn9OYDM2w-14" value="&lt;b&gt;4&lt;/b&gt;" style="ellipse;whiteSpace=wrap;html=1;aspect=fixed;" parent="1" vertex="1">
          <mxGeometry x="1030" y="220" width="50" height="50" as="geometry" />
        </mxCell>
        <mxCell id="kSKzc5L-iOCtn9OYDM2w-18" value="" style="curved=1;endArrow=classic;html=1;rounded=0;entryX=1;entryY=0;entryDx=0;entryDy=0;exitX=0;exitY=0;exitDx=0;exitDy=0;" parent="1" source="kSKzc5L-iOCtn9OYDM2w-8" target="kSKzc5L-iOCtn9OYDM2w-8" edge="1">
          <mxGeometry width="50" height="50" relative="1" as="geometry">
            <mxPoint x="646" y="150" as="sourcePoint" />
            <mxPoint x="696" y="100" as="targetPoint" />
            <Array as="points">
              <mxPoint x="646" y="160" />
              <mxPoint x="716" y="150" />
            </Array>
          </mxGeometry>
        </mxCell>
        <mxCell id="kSKzc5L-iOCtn9OYDM2w-19" value="&lt;span style=&quot;forced-color-adjust: none; color: rgb(0, 0, 0); font-family: Helvetica; font-size: 12px; font-style: normal; font-variant-ligatures: normal; font-variant-caps: normal; letter-spacing: normal; orphans: 2; text-align: center; text-indent: 0px; text-transform: none; widows: 2; word-spacing: 0px; -webkit-text-stroke-width: 0px; white-space: nowrap; background-color: rgb(251, 251, 251); text-decoration-thickness: initial; text-decoration-style: initial; text-decoration-color: initial;&quot;&gt;&lt;font style=&quot;forced-color-adjust: none; font-size: 14px;&quot;&gt;[a-zA-Z0-9-!#$%&amp;amp;&#39;()+,./:;&amp;lt;=&amp;gt;?@[\\\]_&lt;code style=&quot;forced-color-adjust: none;&quot;&gt;{|}~]&lt;/code&gt;&lt;/font&gt;&lt;/span&gt;" style="text;whiteSpace=wrap;html=1;" parent="1" vertex="1">
          <mxGeometry x="530" y="120" width="310" height="40" as="geometry" />
        </mxCell>
        <mxCell id="kSKzc5L-iOCtn9OYDM2w-22" value="&lt;span style=&quot;forced-color-adjust: none; color: rgb(0, 0, 0); font-family: Helvetica; font-size: 12px; font-style: normal; font-variant-ligatures: normal; font-variant-caps: normal; letter-spacing: normal; orphans: 2; text-indent: 0px; text-transform: none; widows: 2; word-spacing: 0px; -webkit-text-stroke-width: 0px; white-space: nowrap; text-decoration-thickness: initial; text-decoration-style: initial; text-decoration-color: initial; text-align: center; background-color: rgb(251, 251, 251);&quot;&gt;&lt;font style=&quot;forced-color-adjust: none; font-size: 14px;&quot;&gt;[a-zA-Z0-9-!#$%&amp;amp;&#39;()*+,./:;&amp;lt;=&amp;gt;?@[\\\]_&lt;code style=&quot;forced-color-adjust: none;&quot;&gt;{|}~]&lt;/code&gt;&lt;/font&gt;&lt;/span&gt;" style="text;whiteSpace=wrap;html=1;rotation=-15;" parent="1" vertex="1">
          <mxGeometry x="860" y="420" width="310" height="40" as="geometry" />
        </mxCell>
        <mxCell id="_ftLBjnjTZmpUto3gGOd-3" value="5" style="ellipse;shape=doubleEllipse;whiteSpace=wrap;html=1;aspect=fixed;" vertex="1" parent="1">
          <mxGeometry x="1150" y="220" width="50" height="50" as="geometry" />
        </mxCell>
        <mxCell id="_ftLBjnjTZmpUto3gGOd-5" value="&lt;font size=&quot;1&quot;&gt;&lt;b style=&quot;font-size: 18px;&quot;&gt;/&lt;/b&gt;&lt;/font&gt;" style="text;whiteSpace=wrap;html=1;" vertex="1" parent="1">
          <mxGeometry x="1110" y="208" width="50" height="50" as="geometry" />
        </mxCell>
        <mxCell id="_ftLBjnjTZmpUto3gGOd-9" style="edgeStyle=orthogonalEdgeStyle;rounded=0;orthogonalLoop=1;jettySize=auto;html=1;exitX=1;exitY=0.5;exitDx=0;exitDy=0;" edge="1" parent="1" source="_ftLBjnjTZmpUto3gGOd-7" target="kSKzc5L-iOCtn9OYDM2w-4">
          <mxGeometry relative="1" as="geometry" />
        </mxCell>
        <mxCell id="_ftLBjnjTZmpUto3gGOd-7" value="&lt;b&gt;&lt;font style=&quot;font-size: 14px;&quot;&gt;1&lt;/font&gt;&lt;/b&gt;" style="ellipse;whiteSpace=wrap;html=1;aspect=fixed;" vertex="1" parent="1">
          <mxGeometry x="190" y="220" width="50" height="50" as="geometry" />
        </mxCell>
        <mxCell id="_ftLBjnjTZmpUto3gGOd-10" value="&lt;font style=&quot;font-size: 18px;&quot;&gt;&lt;b&gt;*&lt;/b&gt;&lt;/font&gt;" style="text;html=1;align=center;verticalAlign=middle;resizable=0;points=[];autosize=1;strokeColor=none;fillColor=none;" vertex="1" parent="1">
          <mxGeometry x="255" y="208" width="30" height="40" as="geometry" />
        </mxCell>
        <mxCell id="_ftLBjnjTZmpUto3gGOd-13" value="&lt;b style=&quot;forced-color-adjust: none; color: rgb(0, 0, 0); font-family: Helvetica; font-size: 18px; font-style: normal; font-variant-ligatures: normal; font-variant-caps: normal; letter-spacing: normal; orphans: 2; text-align: center; text-indent: 0px; text-transform: none; widows: 2; word-spacing: 0px; -webkit-text-stroke-width: 0px; white-space: nowrap; background-color: rgb(251, 251, 251); text-decoration-thickness: initial; text-decoration-style: initial; text-decoration-color: initial;&quot;&gt;*&lt;/b&gt;" style="text;whiteSpace=wrap;html=1;" vertex="1" parent="1">
          <mxGeometry x="620" y="340" width="50" height="50" as="geometry" />
        </mxCell>
        <mxCell id="_ftLBjnjTZmpUto3gGOd-21" value="" style="curved=1;endArrow=classic;html=1;rounded=0;entryX=0;entryY=1;entryDx=0;entryDy=0;exitX=1;exitY=1;exitDx=0;exitDy=0;" edge="1" parent="1" source="kSKzc5L-iOCtn9OYDM2w-8" target="kSKzc5L-iOCtn9OYDM2w-14">
          <mxGeometry width="50" height="50" relative="1" as="geometry">
            <mxPoint x="730" y="320" as="sourcePoint" />
            <mxPoint x="780" y="270" as="targetPoint" />
            <Array as="points">
              <mxPoint x="760" y="290" />
            </Array>
          </mxGeometry>
        </mxCell>
        <mxCell id="_ftLBjnjTZmpUto3gGOd-22" value="" style="curved=1;endArrow=classic;html=1;rounded=0;entryX=1;entryY=0;entryDx=0;entryDy=0;exitX=0;exitY=0;exitDx=0;exitDy=0;" edge="1" parent="1" source="kSKzc5L-iOCtn9OYDM2w-14" target="kSKzc5L-iOCtn9OYDM2w-8">
          <mxGeometry width="50" height="50" relative="1" as="geometry">
            <mxPoint x="829.9999999999995" y="234.9999999999999" as="sourcePoint" />
            <mxPoint x="698.9999999999995" y="234.9999999999999" as="targetPoint" />
            <Array as="points">
              <mxPoint x="772.9999999999995" y="207.9999999999999" />
            </Array>
          </mxGeometry>
        </mxCell>
        <mxCell id="_ftLBjnjTZmpUto3gGOd-23" value="" style="curved=1;endArrow=classic;html=1;rounded=0;entryX=1;entryY=0.5;entryDx=0;entryDy=0;exitX=0.5;exitY=1;exitDx=0;exitDy=0;" edge="1" parent="1" source="_ftLBjnjTZmpUto3gGOd-3" target="kSKzc5L-iOCtn9OYDM2w-11">
          <mxGeometry width="50" height="50" relative="1" as="geometry">
            <mxPoint x="830" y="510" as="sourcePoint" />
            <mxPoint x="780" y="460" as="targetPoint" />
            <Array as="points">
              <mxPoint x="1100" y="350" />
              <mxPoint x="990" y="400" />
              <mxPoint x="830" y="460" />
            </Array>
          </mxGeometry>
        </mxCell>
        <mxCell id="_ftLBjnjTZmpUto3gGOd-25" value="" style="curved=1;endArrow=classic;html=1;rounded=0;entryX=0.5;entryY=1;entryDx=0;entryDy=0;exitX=0.5;exitY=1;exitDx=0;exitDy=0;" edge="1" parent="1" source="kSKzc5L-iOCtn9OYDM2w-1" target="kSKzc5L-iOCtn9OYDM2w-11">
          <mxGeometry width="50" height="50" relative="1" as="geometry">
            <mxPoint x="280" y="540" as="sourcePoint" />
            <mxPoint x="330" y="490" as="targetPoint" />
            <Array as="points">
              <mxPoint x="105" y="350" />
              <mxPoint x="160" y="420" />
              <mxPoint x="270" y="490" />
              <mxPoint x="580" y="550" />
              <mxPoint x="660" y="520" />
            </Array>
          </mxGeometry>
        </mxCell>
        <mxCell id="_ftLBjnjTZmpUto3gGOd-26" value="&lt;b style=&quot;forced-color-adjust: none; color: rgb(0, 0, 0); font-family: Helvetica; font-size: 18px; font-style: normal; font-variant-ligatures: normal; font-variant-caps: normal; letter-spacing: normal; orphans: 2; text-align: center; text-indent: 0px; text-transform: none; widows: 2; word-spacing: 0px; -webkit-text-stroke-width: 0px; white-space: nowrap; background-color: rgb(251, 251, 251); text-decoration-thickness: initial; text-decoration-style: initial; text-decoration-color: initial;&quot;&gt;*&lt;/b&gt;" style="text;whiteSpace=wrap;html=1;" vertex="1" parent="1">
          <mxGeometry x="840" y="280" width="50" height="50" as="geometry" />
        </mxCell>
        <mxCell id="_ftLBjnjTZmpUto3gGOd-27" value="&lt;span style=&quot;forced-color-adjust: none; color: rgb(0, 0, 0); font-family: Helvetica; font-size: 12px; font-style: normal; font-variant-ligatures: normal; font-variant-caps: normal; letter-spacing: normal; orphans: 2; text-align: center; text-indent: 0px; text-transform: none; widows: 2; word-spacing: 0px; -webkit-text-stroke-width: 0px; white-space: nowrap; background-color: rgb(251, 251, 251); text-decoration-thickness: initial; text-decoration-style: initial; text-decoration-color: initial;&quot;&gt;&lt;font style=&quot;forced-color-adjust: none; font-size: 14px;&quot;&gt;[a-zA-Z0-9-!#$%&amp;amp;&#39;()+,.:;&amp;lt;=&amp;gt;?@[\\\]_&lt;code style=&quot;forced-color-adjust: none;&quot;&gt;{|}~]&lt;/code&gt;&lt;/font&gt;&lt;/span&gt;" style="text;whiteSpace=wrap;html=1;" vertex="1" parent="1">
          <mxGeometry x="740" y="180" width="310" height="40" as="geometry" />
        </mxCell>
        <mxCell id="_ftLBjnjTZmpUto3gGOd-28" value="&lt;font style=&quot;font-size: 14px;&quot;&gt;[a-zA-Z0-9-!#$%&amp;amp;&#39;()+,./:;&amp;lt;=&amp;gt;?@[\\\]_&lt;code&gt;{|}~]&lt;/code&gt;&lt;/font&gt;" style="text;html=1;align=center;verticalAlign=middle;resizable=0;points=[];autosize=1;strokeColor=none;fillColor=none;rotation=15;" vertex="1" parent="1">
          <mxGeometry x="220" y="370" width="290" height="30" as="geometry" />
        </mxCell>
      </root>
    </mxGraphModel>
  </diagram>
</mxfile>
